<svg width="16" height="18" viewBox="0 0 16 18" fill="none" xmlns="http://www.w3.org/2000/svg">
<path d="M1 8.2789C1 10.993 1.3885 12.9328 2.94425 15.2593C4.12638 16.8316 5.70575 17.2253 7.38925 16.1238C7.762 15.8893 8.238 15.8893 8.61163 16.1238C10.2943 17.2262 11.8736 16.8316 13.0557 15.2593C14.6115 12.9319 15 10.993 15 8.27977C15 5.95151 13.2587 3.625 11.1115 3.625C10.0029 3.625 9.00275 4.23135 8.294 4.88494C8.2135 4.95798 8.1087 4.99844 8 4.99844C7.8913 4.99844 7.7865 4.95798 7.706 4.88494C6.99812 4.23222 5.99713 3.625 4.8885 3.625C2.74125 3.625 1 5.95239 1 8.2789Z" stroke="white" stroke-linecap="round" stroke-linejoin="round"/>
<path d="M3.625 8.87461C3.625 7.58843 4.02225 6.82721 4.9375 6.24974M8 4.49983C8 3.44988 8.75863 1 10.625 1" stroke="white" stroke-linecap="round" stroke-linejoin="round"/>
</svg>
