<svg width="14" height="14" viewBox="0 0 14 14" fill="none" xmlns="http://www.w3.org/2000/svg">
<path d="M13.2495 3H12.062L13.2814 1.78063C13.3511 1.71086 13.4065 1.62804 13.4442 1.53689C13.482 1.44573 13.5014 1.34804 13.5014 1.24937C13.5014 1.15071 13.482 1.05302 13.4442 0.961865C13.4065 0.870713 13.3511 0.78789 13.2814 0.718125C13.2116 0.64836 13.1288 0.59302 13.0376 0.555263C12.9465 0.517507 12.8488 0.498074 12.7501 0.498074C12.6515 0.498074 12.5538 0.517507 12.4626 0.555263C12.3715 0.59302 12.2886 0.64836 12.2189 0.718125L10.9995 1.9375V0.75C10.9995 0.551088 10.9205 0.360322 10.7798 0.21967C10.6392 0.0790177 10.4484 0 10.2495 0C10.0506 0 9.85981 0.0790177 9.71916 0.21967C9.57851 0.360322 9.49949 0.551088 9.49949 0.75V2.375C8.71329 2.02048 7.83784 1.91354 6.98943 2.06838C6.14101 2.22321 5.35977 2.6325 4.74949 3.24187C2.21511 5.73 0.323238 11.5625 0.110738 12.2356C0.0247998 12.426 -0.0120793 12.6348 0.00346965 12.8431C0.0190186 13.0513 0.0864999 13.2524 0.19975 13.4278C0.313 13.6033 0.468409 13.7476 0.651781 13.8476C0.835154 13.9475 1.04065 13.9999 1.24949 14C1.42709 13.9997 1.60262 13.9618 1.76449 13.8888C2.24199 13.7375 5.31386 12.7425 7.94636 11.275L7.98011 11.2563C9.04886 10.6581 10.0426 9.98188 10.7576 9.25625C11.3683 8.64546 11.7784 7.8631 11.9332 7.0134C12.0881 6.16369 11.9804 5.28696 11.6245 4.5H13.2495C13.4484 4.5 13.6392 4.42098 13.7798 4.28033C13.9205 4.13968 13.9995 3.94891 13.9995 3.75C13.9995 3.55109 13.9205 3.36032 13.7798 3.21967C13.6392 3.07902 13.4484 3 13.2495 3ZM9.69386 8.195L9.68824 8.20063C9.18136 8.71813 8.49386 9.21312 7.73011 9.67062L6.27949 8.22C6.13859 8.0791 5.9475 7.99995 5.74824 7.99995C5.54898 7.99995 5.35788 8.0791 5.21699 8.22C5.07609 8.3609 4.99694 8.55199 4.99694 8.75125C4.99694 8.95051 5.07609 9.1416 5.21699 9.2825L6.35574 10.4213C4.46261 11.3694 2.47261 12.0725 1.65199 12.3475C2.07511 11.0837 3.51386 7.0475 5.29824 4.86375L7.21699 6.7825C7.35788 6.9234 7.54898 7.00255 7.74824 7.00255C7.9475 7.00255 8.13859 6.9234 8.27949 6.7825C8.42038 6.6416 8.49954 6.45051 8.49954 6.25125C8.49954 6.05199 8.42038 5.8609 8.27949 5.72L6.40824 3.84875C6.98788 3.52434 7.66536 3.42069 8.31548 3.55697C8.9656 3.69324 9.54443 4.06023 9.945 4.59011C10.3456 5.11999 10.5408 5.77695 10.4947 6.43959C10.4485 7.10224 10.164 7.72578 9.69386 8.195Z" fill="white"/>
</svg>
