<svg width="13" height="12" viewBox="0 0 13 12" fill="none" xmlns="http://www.w3.org/2000/svg">
<path d="M6.02098 0C9.34636 0 12.042 2.6862 12.042 6C12.042 9.3138 9.34636 12 6.02098 12C2.69559 12 0 9.3138 0 6C0 2.6862 2.69559 0 6.02098 0ZM6.02098 1.2C4.74349 1.2 3.51832 1.70571 2.615 2.60589C1.71168 3.50606 1.2042 4.72696 1.2042 6C1.2042 7.27304 1.71168 8.49394 2.615 9.39411C3.51832 10.2943 4.74349 10.8 6.02098 10.8C7.29847 10.8 8.52364 10.2943 9.42696 9.39411C10.3303 8.49394 10.8378 7.27304 10.8378 6C10.8378 4.72696 10.3303 3.50606 9.42696 2.60589C8.52364 1.70571 7.29847 1.2 6.02098 1.2ZM6.02098 2.4C6.16845 2.40002 6.31079 2.45397 6.421 2.55163C6.5312 2.64928 6.60161 2.78385 6.61886 2.9298L6.62308 3V5.7516L8.25296 7.3758C8.36094 7.48378 8.42363 7.62866 8.4283 7.78103C8.43297 7.9334 8.37927 8.08183 8.27809 8.19617C8.17692 8.31051 8.03587 8.38218 7.88358 8.39664C7.7313 8.4111 7.5792 8.36725 7.45819 8.274L7.40159 8.2242L5.5953 6.4242C5.50172 6.33087 5.44162 6.2094 5.4243 6.0786L5.41888 6V3C5.41888 2.84087 5.48232 2.68826 5.59523 2.57574C5.70815 2.46321 5.86129 2.4 6.02098 2.4Z" fill="black"/>
</svg>
