<svg width="16" height="16" viewBox="0 0 16 16" fill="none" xmlns="http://www.w3.org/2000/svg">
<path d="M15 15C14.0807 15 13.1705 14.8189 12.3212 14.4672C11.4719 14.1154 10.7003 13.5998 10.0503 12.9497C9.40024 12.2997 8.88463 11.5281 8.53284 10.6788C8.18106 9.82951 8 8.91925 8 8C8 7.08075 8.18106 6.1705 8.53284 5.32122C8.88463 4.47194 9.40024 3.70026 10.0503 3.05025C10.7003 2.40024 11.4719 1.88463 12.3212 1.53284C13.1705 1.18106 14.0807 1 15 1M3.33333 1V4.88889M3.33333 15V7.22222M1.38889 4.88889H5.27778M5.66667 1V4.38489C5.66667 8.168 1 8.168 1 4.38489V1" stroke="white" stroke-linecap="round" stroke-linejoin="round"/>
</svg>
