<svg width="21" height="12" viewBox="0 0 21 12" fill="none" xmlns="http://www.w3.org/2000/svg">
<path d="M1.5 8.7C3.1497 6.2997 7.62 1.5 12.3 1.5C13.1307 1.5 13.8786 1.5945 14.55 1.7583M14.55 1.7583C17.664 2.517 19.5 6 19.5 6C19.5 6 17.664 9.483 14.55 10.2417M14.55 1.7583C12.39 5.2044 13.65 8.8503 14.55 10.2417M1.5 3.3C3.1497 5.7003 7.62 10.5 12.3 10.5C13.1307 10.5 13.8786 10.4055 14.55 10.2417M10.5 4.65C10.05 5.1 9.42 6.27 10.5 7.35" stroke="white" stroke-width="1.5" stroke-linecap="round"/>
</svg>
