<svg width="16" height="16" viewBox="0 0 16 16" fill="none" xmlns="http://www.w3.org/2000/svg">
<path d="M9.37223 5.10292L10.8712 3.60324C10.6938 3.42595 10.5629 3.20767 10.4901 2.96773C10.4173 2.72779 10.4047 2.47358 10.4536 2.22764C10.5025 1.98169 10.6113 1.7516 10.7703 1.55773C10.9293 1.36386 11.1337 1.21221 11.3654 1.1162C11.597 1.02019 11.8488 0.982788 12.0983 1.00731C12.3479 1.03183 12.5875 1.11751 12.7961 1.25677C13.0046 1.39603 13.1756 1.58456 13.2938 1.80568C13.4121 2.02679 13.474 2.27366 13.4741 2.52441C13.7249 2.52423 13.9719 2.58592 14.1931 2.70403C14.4144 2.82213 14.6031 2.99299 14.7426 3.20146C14.882 3.40994 14.9679 3.6496 14.9926 3.8992C15.0173 4.1488 14.98 4.40064 14.8841 4.63239C14.7882 4.86414 14.6366 5.06866 14.4427 5.22781C14.2489 5.38696 14.0187 5.49583 13.7727 5.54478C13.5267 5.59373 13.2725 5.58124 13.0325 5.50842C12.7924 5.4356 12.5741 5.3047 12.3968 5.12732L11.0092 6.51569M4.70621 10.9111L5.46863 11.6735M3.48938 12.8903C5.57308 14.9748 7.98767 15.94 8.87971 15.0472C9.77327 14.1536 8.80804 11.7398 6.72358 9.65611C4.63988 7.57165 2.22529 6.60642 1.33325 7.49922C0.439692 8.39277 1.40492 10.8066 3.48938 12.8903Z" stroke="white" stroke-linecap="round" stroke-linejoin="round"/>
<path d="M8.8812 15.0468C11.8585 12.0688 12.5828 7.9654 10.4983 5.8817C8.4146 3.79723 4.31124 4.52153 1.33398 7.49879" stroke="white" stroke-linecap="round" stroke-linejoin="round"/>
</svg>
