<svg width="13" height="12" viewBox="0 0 13 12" fill="none" xmlns="http://www.w3.org/2000/svg">
<path d="M9.64903 11.9999C9.12423 11.9999 8.38705 11.8108 7.28316 11.1963C5.9408 10.4463 4.9025 9.75389 3.5674 8.42717C2.28015 7.14546 1.65374 6.31563 0.777021 4.72615C-0.213417 2.93148 -0.0445805 1.99076 0.144151 1.5887C0.368909 1.10816 0.700668 0.820743 1.12948 0.535472C1.37305 0.37648 1.6308 0.240188 1.89946 0.128324C1.92635 0.116806 1.95135 0.105824 1.97367 0.0959133C2.10675 0.0361805 2.30838 -0.0540885 2.56379 0.0423413C2.73424 0.106092 2.88641 0.23654 3.12461 0.470918C3.61311 0.950924 4.28066 2.01995 4.52692 2.54496C4.69226 2.8988 4.80169 3.13238 4.80195 3.39435C4.80195 3.70105 4.6471 3.93757 4.45917 4.19284C4.42395 4.24078 4.389 4.28659 4.35513 4.33105C4.15053 4.59891 4.10564 4.67633 4.13521 4.81454C4.19516 5.09231 4.64226 5.9192 5.37702 6.64965C6.11178 7.38011 6.91779 7.79743 7.19767 7.8569C7.34231 7.8877 7.42162 7.84109 7.69907 7.63002C7.73886 7.59975 7.77972 7.56841 7.82247 7.53707C8.10906 7.32466 8.33543 7.17439 8.63601 7.17439H8.63762C8.89921 7.17439 9.12316 7.28743 9.49417 7.47386C9.9781 7.71708 11.0833 8.3736 11.5681 8.86084C11.8038 9.09763 11.9353 9.2487 11.9996 9.41826C12.0964 9.67353 12.0052 9.87362 11.9458 10.0075C11.9359 10.0298 11.9248 10.0542 11.9133 10.0812C11.8001 10.3484 11.6625 10.6047 11.5022 10.8468C11.2164 11.2727 10.9269 11.6024 10.4435 11.8266C10.1953 11.9436 9.9236 12.0028 9.64903 11.9999Z" fill="black"/>
</svg>
