<svg width="64" height="60" viewBox="0 0 64 60" fill="none" xmlns="http://www.w3.org/2000/svg">
<path d="M19.1416 40.8979V1.66699L23.4273 3.84649L27.7129 1.66699L31.9906 3.84649L36.3258 1.66699L40.5699 3.84649L44.8275 1.66699L49.1037 3.84649L53.4269 1.66699L57.7139 3.84649L61.9982 1.66699V32.1799" stroke="#FEFFFF" stroke-width="3" stroke-linejoin="round"/>
<path d="M61.9994 32.1797V47.4361C61.9994 50.3263 60.8705 53.0981 58.8613 55.1418C56.852 57.1855 54.1268 58.3336 51.2852 58.3336M51.2852 58.3336C48.4436 58.3336 45.7184 57.1855 43.7091 55.1418C41.6999 53.0981 40.571 50.3263 40.571 47.4361V40.8977H4.14291C3.86082 40.8951 3.58105 40.9498 3.31994 41.0584C3.05883 41.167 2.82161 41.3275 2.62213 41.5303C2.42265 41.7332 2.2649 41.9745 2.1581 42.2401C2.0513 42.5057 1.99758 42.7902 2.00008 43.0772C2.00008 51.7951 2.90275 58.3336 12.7142 58.3336H51.2852Z" stroke="#FEFFFF" stroke-width="3" stroke-linejoin="round"/>
<path d="M27.7139 14.7441H53.4278M36.2852 25.6416H53.4278" stroke="#FEFFFF" stroke-width="3" stroke-linecap="round" stroke-linejoin="round"/>
</svg>
