<svg width="8" height="8" viewBox="0 0 8 8" fill="none" xmlns="http://www.w3.org/2000/svg">
<path fill-rule="evenodd" clip-rule="evenodd" d="M7.84835 0.883106C7.89639 0.835128 7.9345 0.778159 7.96052 0.71545C7.98654 0.652742 7.99996 0.585522 8 0.517629C8.00004 0.449737 7.98671 0.382501 7.96077 0.31976C7.93483 0.25702 7.89678 0.200003 7.8488 0.151966C7.80083 0.10393 7.74386 0.0658131 7.68115 0.0397932C7.61844 0.0137733 7.55122 0.000359507 7.48333 0.000317778C7.41544 0.00027605 7.34821 0.0136072 7.28547 0.03955C7.22273 0.0654928 7.16571 0.103539 7.11768 0.151517L3.99993 3.26931L0.883092 0.151517C0.786079 0.0545022 0.654501 -1.02222e-09 0.517303 0C0.380106 1.02222e-09 0.248528 0.0545022 0.151515 0.151517C0.0545013 0.248532 1.0222e-09 0.380112 0 0.517312C-1.0222e-09 0.654511 0.0545013 0.786092 0.151515 0.883106L3.26926 4L0.151515 7.11689C0.103478 7.16493 0.0653742 7.22196 0.0393773 7.28472C0.0133804 7.34748 0 7.41475 0 7.48269C0 7.55062 0.0133804 7.61789 0.0393773 7.68065C0.0653742 7.74342 0.103478 7.80045 0.151515 7.84848C0.248528 7.9455 0.380106 8 0.517303 8C0.585236 8 0.652504 7.98662 0.715267 7.96062C0.778029 7.93462 0.835056 7.89652 0.883092 7.84848L3.99993 4.73069L7.11768 7.84848C7.21469 7.94538 7.34622 7.99977 7.48333 7.99968C7.62045 7.9996 7.75191 7.94505 7.8488 7.84803C7.9457 7.75102 8.00008 7.61949 8 7.48237C7.99992 7.34525 7.94537 7.21379 7.84835 7.11689L4.73061 4L7.84835 0.883106Z" fill="#A19EA5"/>
</svg>
