<svg width="30" height="26" viewBox="0 0 30 26" fill="none" xmlns="http://www.w3.org/2000/svg">
<path d="M6.59668 3.74287H10.0967L11.4967 1H18.4967L19.8967 3.74287H23.3967V14.7143H6.59668V3.74287Z" stroke="white" stroke-linecap="round" stroke-linejoin="round"/>
<path d="M14.9982 11.2855C16.5446 11.2855 17.7982 10.0575 17.7982 8.54267C17.7982 7.02783 16.5446 5.7998 14.9982 5.7998C13.4518 5.7998 12.1982 7.02783 12.1982 8.54267C12.1982 10.0575 13.4518 11.2855 14.9982 11.2855Z" stroke="white" stroke-linecap="round" stroke-linejoin="round"/>
<path d="M15 22.2573C7.2678 22.2573 1 19.1873 1 15.4001C1 14.425 1.4158 13.4972 2.1648 12.6572M15 22.2573L12.2 19.5144M15 22.2573L12.2 25.0001M20.6 21.6867C25.5448 20.6287 29 18.2115 29 15.4001C29 14.425 28.5842 13.4972 27.8352 12.6572" stroke="white" stroke-linecap="round" stroke-linejoin="round"/>
</svg>
